<svg xmlns="http://www.w3.org/2000/svg" xmlns:xlink="http://www.w3.org/1999/xlink" width="500" zoomAndPan="magnify" viewBox="0 0 375 374.999991" height="500" preserveAspectRatio="xMidYMid meet" version="1.0"><path fill="#ff3131" d="M 245.234375 115.625 L 148.984375 115.625 C 135.859375 115.625 125.234375 126.25 125.234375 139.375 L 125.234375 235.625 C 125.234375 248.75 135.859375 259.375 148.984375 259.375 L 245.234375 259.375 C 258.359375 259.375 268.984375 248.75 268.984375 235.625 L 268.984375 139.375 C 268.984375 126.25 258.359375 115.625 245.234375 115.625 Z M 213.359375 147.5 C 219.609375 147.5 224.609375 151.25 224.609375 155.625 C 224.609375 160 219.609375 163.75 213.359375 163.75 C 207.109375 163.75 202.109375 160 202.109375 155.625 C 202.734375 151.25 207.734375 147.5 213.359375 147.5 Z M 177.734375 147.5 C 183.984375 147.5 188.984375 151.25 188.984375 155.625 C 188.984375 160 183.984375 163.75 177.734375 163.75 C 171.484375 163.75 166.484375 160 166.484375 155.625 C 166.484375 151.25 171.484375 147.5 177.734375 147.5 Z M 236.484375 181.875 C 223.984375 211.25 206.484375 226.875 188.359375 226.875 C 177.734375 226.875 168.359375 221.875 162.734375 213.125 C 156.484375 203.75 155.859375 191.25 161.484375 179.375 C 162.109375 178.125 163.359375 177.5 163.984375 177.5 L 233.359375 177.5 C 234.609375 177.5 235.234375 178.125 235.859375 178.75 C 236.484375 180 236.484375 181.25 236.484375 181.875 Z M 236.484375 181.875 " fill-opacity="1" fill-rule="nonzero"/></svg>